#tb 0: 71/1000
0,          0,          0,        1,     7866, 0xa0056fdb
0,          1,          1,        1,     7866, 0xed906c7a
0,          2,          2,        1,     7866, 0x1c6e6f7d
0,          3,          3,        1,     7866, 0xa2c460f7
0,          4,          4,        1,     7866, 0xcf2166d4
0,          5,          5,        1,     7866, 0xea545432
0,          6,          6,        1,     7866, 0x604a5a9e
0,          7,          7,        1,     7866, 0xbbc95c89
0,          8,          8,        1,     7866, 0x80b16b5b
0,          9,          9,        1,     7866, 0x9a1660ae
0,         10,         10,        1,     7866, 0x6f886b10
0,         11,         11,        1,     7866, 0xad8b5c99
